<?xml version="1.0" encoding="utf-8"?>
<!-- Generator: Adobe Illustrator 27.9.0, SVG Export Plug-In . SVG Version: 6.00 Build 0)  -->
<svg version="1.1" id="Layer_1" xmlns="http://www.w3.org/2000/svg" xmlns:xlink="http://www.w3.org/1999/xlink" x="0px" y="0px"
	 viewBox="0 0 400 400" style="enable-background:new 0 0 400 400;" xml:space="preserve">
<style type="text/css">
	.st0{fill:#393944;}
</style>
<path class="st0" d="M49.21,104.47l152.26,44.03c9.91,2.86,15.61,13.22,12.75,23.12v0c-2.86,9.91-13.22,15.61-23.12,12.75
	L38.84,140.34c-9.91-2.86-15.61-13.22-12.75-23.12l0,0C28.95,107.31,39.3,101.6,49.21,104.47z"/>
<path class="st0" d="M354.53,137.58l-151.5,46.59c-9.86,3.03-20.3-2.5-23.33-12.36l0,0c-3.03-9.86,2.5-20.3,12.36-23.33l151.5-46.59
	c9.86-3.03,20.3,2.5,23.33,12.36v0C369.92,124.11,364.39,134.55,354.53,137.58z"/>
<path class="st0" d="M49.49,177.68l152.26,44.03c9.91,2.86,15.61,13.22,12.75,23.12l0,0c-2.86,9.91-13.22,15.61-23.12,12.75
	L39.12,213.56c-9.91-2.86-15.61-13.22-12.75-23.12l0,0C29.23,180.53,39.58,174.82,49.49,177.68z"/>
<path class="st0" d="M354.81,210.8l-151.5,46.59c-9.86,3.03-20.3-2.5-23.33-12.36v0c-3.03-9.86,2.5-20.3,12.36-23.33l151.5-46.59
	c9.86-3.03,20.3,2.5,23.33,12.36v0C370.2,197.32,364.67,207.77,354.81,210.8z"/>
</svg>
