<?xml version="1.0" encoding="utf-8"?>
<!-- Generator: Adobe Illustrator 27.9.0, SVG Export Plug-In . SVG Version: 6.00 Build 0)  -->
<svg version="1.1" id="Layer_1" xmlns="http://www.w3.org/2000/svg" xmlns:xlink="http://www.w3.org/1999/xlink" x="0px" y="0px"
	 viewBox="0 0 400 400" style="enable-background:new 0 0 400 400;" xml:space="preserve">
<style type="text/css">
	.st0{fill:none;stroke:#393944;stroke-width:3;stroke-miterlimit:10;}
	.st1{fill:#393944;stroke:#393944;stroke-width:3;stroke-miterlimit:10;}
</style>
<circle class="st0" cx="199.5" cy="199.5" r="198"/>
<path class="st1" d="M84.69,152.63l9.93-23.35l103.6-50.96c0,0,46.27-19.97,77.56,20.81s17.48,73.24,17.48,73.24l-6.32,14.98
	c0,0,3.33-28.19-16.31-56.96c-19.64-28.76-48.94-32.09-48.94-32.09s-17.59-2.74-31.2,3.04c-13.6,5.78-53.59,25.28-53.59,25.28
	L84.69,152.63z"/>
<path class="st1" d="M240.73,69.65c0,0,44.12,8.92,58.2,65.23c0,0,39.37-23.98,10.5-67.04C309.43,67.84,275.34,31.98,240.73,69.65z"
	/>
<path class="st1" d="M85.66,158.37c0,0,99.03-48.3,109.78-52.15c17.04-6.11,54.21-0.55,72.16,29.83
	c29.69,50.23,1.12,81.71,1.12,81.71s-6.47,9.38-14.06,13.39c-7.59,4.02-52.68,27.24-52.68,27.24l37.5,73.67l-52.68,26.57
	l-33.04-66.08l73.67-76.79c0,0,28.57-29.02-0.22-64.96c0,0-29.91-29.69-63.85-2.9l-54.25,56.03L85.66,158.37z"/>
<polygon class="st1" points="209.79,260.55 226.68,252.02 253.47,305.3 243.83,329.05 "/>
<path class="st1" d="M93.54,227.55l72.41-74.75c0,0,24.69-23.69,55.56,1.17c0,0,25.86,21.36,5.84,53.56l-74.41,77.75l4.36-31.45
	c0,0,0.37-3.46-2.72-2.84l-28.44,2.72l-0.49-24.8c0,0,0.06-1.92-2.16-1.86C121.25,227.12,93.54,227.55,93.54,227.55z"/>
<path class="st1" d="M89.79,233.01l31.04-0.92l0.86,24.25c0,0,0.2,2.57,2.64,2.37s27.22-2.64,27.22-2.64l-3.95,32.48l-38.4,16
	c0,0-1.31-17.17-10.43-24.79c0,0-9.29-9.64-23.3-7.18L89.79,233.01z"/>
<path class="st1" d="M73.21,277.99c0,0,29.34-6.91,30.75,28.59l-26.23,10.39c0,0-13.92,2.73-14.2-11.38L73.21,277.99z"/>
</svg>
