<?xml version="1.0" encoding="utf-8"?>
<!-- Generator: Adobe Illustrator 27.9.0, SVG Export Plug-In . SVG Version: 6.00 Build 0)  -->
<svg version="1.1" id="Layer_1" xmlns="http://www.w3.org/2000/svg" xmlns:xlink="http://www.w3.org/1999/xlink" x="0px" y="0px"
	 viewBox="0 0 400 400" style="enable-background:new 0 0 400 400;" xml:space="preserve">
<style type="text/css">
	.st0{fill:none;stroke:#FFFFFF;stroke-width:3;stroke-miterlimit:10;}
</style>
<circle class="st0" cx="199.5" cy="199.5" r="198"/>
<path class="st0" d="M84.7,152.6l9.9-23.4l103.6-51c0,0,46.3-20,77.6,20.8s17.5,73.2,17.5,73.2l-6.3,15c0,0,3.3-28.2-16.3-57
	c-19.6-28.8-48.9-32.1-48.9-32.1s-17.6-2.7-31.2,3c-13.6,5.8-53.6,25.3-53.6,25.3L84.7,152.6z"/>
<path class="st0" d="M240.7,69.7c0,0,44.1,8.9,58.2,65.2c0,0,39.4-24,10.5-67C309.4,67.8,275.3,32,240.7,69.7z"/>
<path class="st0" d="M85.7,158.4c0,0,99-48.3,109.8-52.2c17-6.1,54.2-0.6,72.2,29.8c29.7,50.2,1.1,81.7,1.1,81.7s-6.5,9.4-14.1,13.4
	c-7.6,4-52.7,27.2-52.7,27.2l37.5,73.7l-52.7,26.6l-33-66.1l73.7-76.8c0,0,28.6-29-0.2-65c0,0-29.9-29.7-63.8-2.9l-54.2,56
	L85.7,158.4z"/>
<polygon class="st0" points="209.8,260.5 226.7,252 253.5,305.3 243.8,329 "/>
<path class="st0" d="M93.5,227.6l72.4-74.8c0,0,24.7-23.7,55.6,1.2c0,0,25.9,21.4,5.8,53.6l-74.4,77.8l4.4-31.4c0,0,0.4-3.5-2.7-2.8
	l-28.4,2.7l-0.5-24.8c0,0,0.1-1.9-2.2-1.9C121.2,227.1,93.5,227.6,93.5,227.6z"/>
<path class="st0" d="M89.8,233l31-0.9l0.9,24.2c0,0,0.2,2.6,2.6,2.4s27.2-2.6,27.2-2.6l-3.9,32.5l-38.4,16c0,0-1.3-17.2-10.4-24.8
	c0,0-9.3-9.6-23.3-7.2L89.8,233z"/>
<path class="st0" d="M73.2,278c0,0,29.3-6.9,30.8,28.6L77.7,317c0,0-13.9,2.7-14.2-11.4L73.2,278z"/>
</svg>
